<?xml version="1.0" encoding="UTF-8"?>
<svg id="Lager_1" xmlns="http://www.w3.org/2000/svg" viewBox="0 0 358 265">
  <defs>
    <style>
      .cls-1 {
        fill: #666e70;
      }

      .cls-2 {
        fill: #fef7ee;
      }

      .cls-3 {
        fill: #ff776b;
      }

      .cls-4 {
        fill: #c9c1b9;
        opacity: .4;
      }

      .cls-5 {
        fill: #ffbcb5;
      }
    </style>
  </defs>
  <rect class="cls-5" x="-.19" y="-1.13" width="358.72" height="265.33"/>
  <g>
    <path class="cls-2" d="M165.62,209.91c-3.25-6.17,1.64-1.14.97-39.27-.14-7.72-4.88-35.54-6.17-50.95-.09-1.1-.54-3.28-1.09-5.23-.65-2.28-2.72-3.86-5.09-3.86h-10.69l-20.44-81.78s-1.69-7.47-6.94-3.91c1.07-.43,2.53-.34,3.6.25,1.92,1.05.17,5.57.35,9.58s4.01,15.15,4.01,22.47,3.35,10.25,5.92,18.12c3.21,9.82,3.83,34.66,3.83,34.66l-25.91-.82s3.48-12.55,2.39-25.31c-1.92-22.47,4.35-54.7,4.35-56.96,0-.42.11-.77.29-1.07-.52.47-1.06,1.02-1.64,1.7-7.46,8.76-13.63,82.75-13.63,82.75l-10.24-.23c-2.4-.05-4.54,1.49-5.24,3.79-1.96,6.42-5.39,14-6.91,26.63-1.22,10.12-3.25,56.47-3.57,64.58-.32,8.11-8.11,17.2-6.81,20.12,1.3,2.92,16.23-8.11,28.56-6.17,12.33,1.95,27.39,5.6,48.49,4.95,21.09-.65,25.18,3.16,30.05,3.81,4.87.65-5.19-11.68-8.44-17.85Z"/>
    <path class="cls-4" d="M117.24,148.14c-2.32-4.81-.98-10.62,1.1-15.29,1.43-3.09,3.44-5.83,4.99-8.84,2.3-4.44,4.16-9.05,4.86-14.09.79,5.12-.61,10.45-2.68,15.14-.69,1.6-1.51,3.13-2.4,4.62-3.41,5.66-6.42,11.66-5.87,18.47h0Z"/>
    <path class="cls-4" d="M88.62,148.71c7.41,5.69,17.25,15.37,19.61,24.61.14.59.19,1.46.26,2.07.88,6.63,5.62,13.13,8.82,18.91,1.21,2.28,2.79,4.58,3.04,7.21-.24-1.29-.98-2.39-1.65-3.48-4.65-7.28-11.35-13.99-12.63-22.9-.07-.41-.13-.85-.25-1.26-.97-3.43-3.21-6.8-5.3-9.8-3.73-5.3-7.85-10.2-11.89-15.37h0Z"/>
    <path class="cls-4" d="M140.62,114.82c4.37,4.98,8.37,10.57,12.68,15.57,1.04,1.25,2.21,2.43,3.36,3.57,3.67,3.69,6.2,8.53,7.19,13.58-2.6-4.54-5.44-8.77-9.36-12.13-.46-.44-1.02-.9-1.45-1.36-5.28-5.61-9.35-12.2-12.42-19.22h0Z"/>
    <path class="cls-4" d="M147.89,221.21c-5.1-3.21-9.55-8.56-10.27-14.83-.29-2.16.19-4.39.82-6.42,1.36-3.76,2.89-7.45,4.55-11.08,1.66-3.63,3.44-7.2,5.52-10.64-2.13,7.69-4.87,15.14-7.56,22.62-2.79,7.52,1.98,14.8,6.95,20.34h0Z"/>
    <path class="cls-4" d="M87.28,215.79c8.08-16.11,3.51-33.76-1.65-50.06,8.8,14.68,13.32,35.69,1.65,50.06h0Z"/>
    <path d="M109.9,142.38c-.85,0-1.54-.69-1.54-1.54,0-3.49-2.84-6.32-6.32-6.32s-6.32,2.84-6.32,6.32c0,.85-.69,1.54-1.54,1.54s-1.54-.69-1.54-1.54c0-5.18,4.22-9.4,9.4-9.4s9.4,4.22,9.4,9.4c0,.85-.69,1.54-1.54,1.54Z"/>
    <path d="M121.49,166.7c-5.18,0-9.4-4.22-9.4-9.4,0-.85.69-1.54,1.54-1.54s1.54.69,1.54,1.54c0,3.49,2.84,6.32,6.32,6.32s6.32-2.84,6.32-6.32c0-.85.69-1.54,1.54-1.54s1.54.69,1.54,1.54c0,5.18-4.22,9.4-9.4,9.4Z"/>
    <path d="M147.97,142.38c-.85,0-1.54-.69-1.54-1.54,0-3.49-2.84-6.32-6.32-6.32s-6.32,2.84-6.32,6.32c0,.85-.69,1.54-1.54,1.54s-1.54-.69-1.54-1.54c0-5.18,4.22-9.4,9.4-9.4s9.4,4.22,9.4,9.4c0,.85-.69,1.54-1.54,1.54Z"/>
  </g>
  <circle class="cls-1" cx="117.28" cy="25.5" r="9.92"/>
  <g>
    <circle class="cls-3" cx="258.82" cy="88.03" r="5.39"/>
    <circle class="cls-3" cx="261.12" cy="96.39" r="5.39"/>
    <circle class="cls-3" cx="254.02" cy="94.18" r="5.39"/>
    <circle class="cls-3" cx="265.82" cy="91.69" r="5.39"/>
    <circle class="cls-3" cx="266.46" cy="98.82" r="5.39"/>
    <circle class="cls-3" cx="258.36" cy="100.82" r="5.39"/>
  </g>
  <g>
    <circle class="cls-3" cx="313.09" cy="221.09" r="5.39"/>
    <circle class="cls-3" cx="315.4" cy="229.45" r="5.39"/>
    <circle class="cls-3" cx="308.3" cy="227.24" r="5.39"/>
    <circle class="cls-3" cx="320.1" cy="224.75" r="5.39"/>
    <circle class="cls-3" cx="320.73" cy="231.88" r="5.39"/>
    <circle class="cls-3" cx="312.64" cy="233.88" r="5.39"/>
  </g>
  <g>
    <circle class="cls-3" cx="41.81" cy="28.31" r="5.39"/>
    <circle class="cls-3" cx="44.12" cy="36.67" r="5.39"/>
    <circle class="cls-3" cx="37.02" cy="34.46" r="5.39"/>
    <circle class="cls-3" cx="48.82" cy="31.97" r="5.39"/>
    <circle class="cls-3" cx="49.45" cy="39.1" r="5.39"/>
    <circle class="cls-3" cx="41.35" cy="41.1" r="5.39"/>
  </g>
  <g>
    <circle class="cls-3" cx="38.35" cy="135.66" r="5.39"/>
    <circle class="cls-3" cx="40.65" cy="144.03" r="5.39"/>
    <circle class="cls-3" cx="33.55" cy="141.81" r="5.39"/>
    <circle class="cls-3" cx="45.35" cy="139.33" r="5.39"/>
    <circle class="cls-3" cx="45.99" cy="146.45" r="5.39"/>
    <circle class="cls-3" cx="37.89" cy="148.46" r="5.39"/>
  </g>
  <g>
    <circle class="cls-3" cx="95.68" cy="240.33" r="5.39"/>
    <circle class="cls-3" cx="97.99" cy="248.69" r="5.39"/>
    <circle class="cls-3" cx="90.89" cy="246.48" r="5.39"/>
    <circle class="cls-3" cx="102.69" cy="243.99" r="5.39"/>
    <circle class="cls-3" cx="103.32" cy="251.12" r="5.39"/>
    <circle class="cls-3" cx="95.22" cy="253.12" r="5.39"/>
  </g>
  <g>
    <circle class="cls-3" cx="342.75" cy="131.22" r="5.39"/>
    <circle class="cls-3" cx="334.38" cy="133.52" r="5.39"/>
    <circle class="cls-3" cx="336.6" cy="126.42" r="5.39"/>
    <circle class="cls-3" cx="339.08" cy="138.22" r="5.39"/>
    <circle class="cls-3" cx="331.96" cy="138.86" r="5.39"/>
    <circle class="cls-3" cx="329.95" cy="130.76" r="5.39"/>
  </g>
  <g>
    <circle class="cls-3" cx="191.91" cy="129.68" r="5.39"/>
    <circle class="cls-3" cx="183.55" cy="131.98" r="5.39"/>
    <circle class="cls-3" cx="185.76" cy="124.88" r="5.39"/>
    <circle class="cls-3" cx="188.24" cy="136.68" r="5.39"/>
    <circle class="cls-3" cx="181.12" cy="137.32" r="5.39"/>
    <circle class="cls-3" cx="179.11" cy="129.22" r="5.39"/>
  </g>
  <g>
    <circle class="cls-3" cx="27.98" cy="240.5" r="5.39"/>
    <circle class="cls-3" cx="19.62" cy="242.8" r="5.39"/>
    <circle class="cls-3" cx="21.83" cy="235.7" r="5.39"/>
    <circle class="cls-3" cx="24.32" cy="247.5" r="5.39"/>
    <circle class="cls-3" cx="17.19" cy="248.14" r="5.39"/>
    <circle class="cls-3" cx="15.19" cy="240.04" r="5.39"/>
  </g>
  <g>
    <circle class="cls-3" cx="240.86" cy="195.49" r="5.39"/>
    <circle class="cls-3" cx="232.5" cy="197.8" r="5.39"/>
    <circle class="cls-3" cx="234.71" cy="190.7" r="5.39"/>
    <circle class="cls-3" cx="237.19" cy="202.5" r="5.39"/>
    <circle class="cls-3" cx="230.07" cy="203.14" r="5.39"/>
    <circle class="cls-3" cx="228.06" cy="195.04" r="5.39"/>
  </g>
  <g>
    <circle class="cls-3" cx="174.59" cy="54.64" r="5.39"/>
    <circle class="cls-3" cx="166.23" cy="56.95" r="5.39"/>
    <circle class="cls-3" cx="168.44" cy="49.85" r="5.39"/>
    <circle class="cls-3" cx="170.93" cy="61.64" r="5.39"/>
    <circle class="cls-3" cx="163.8" cy="62.28" r="5.39"/>
    <circle class="cls-3" cx="161.8" cy="54.18" r="5.39"/>
  </g>
  <g>
    <circle class="cls-3" cx="296.68" cy="26.01" r="5.39"/>
    <circle class="cls-3" cx="288.31" cy="28.32" r="5.39"/>
    <circle class="cls-3" cx="290.53" cy="21.22" r="5.39"/>
    <circle class="cls-3" cx="293.01" cy="33.02" r="5.39"/>
    <circle class="cls-3" cx="285.89" cy="33.66" r="5.39"/>
    <circle class="cls-3" cx="283.88" cy="25.56" r="5.39"/>
  </g>
</svg>