<?xml version="1.0" encoding="UTF-8"?>
<svg id="Lager_1" xmlns="http://www.w3.org/2000/svg" viewBox="0 0 358 265">
  <defs>
    <style>
      .cls-1 {
        fill: #a9d5e0;
      }

      .cls-2 {
        fill: #666e70;
      }

      .cls-3 {
        fill: #fef7ee;
      }

      .cls-4 {
        fill: #ffbcb5;
      }

      .cls-5 {
        fill: #6e8721;
      }

      .cls-6 {
        fill: #c2e07a;
      }

      .cls-7 {
        fill: #996764;
      }

      .cls-8 {
        fill: #47818e;
      }

      .cls-9 {
        fill: none;
        stroke: #000;
        stroke-miterlimit: 10;
        stroke-width: 3px;
      }
    </style>
  </defs>
  <rect class="cls-3" x=".24" y="-5.6" width="357.52" height="178.03"/>
  <rect class="cls-2" x="-.65" y="163.78" width="359.31" height="101.22"/>
  <g>
    <rect class="cls-6" x="35.46" y="60.86" width="91.49" height="161.76" rx="11.13" ry="11.13"/>
    <rect class="cls-4" x="133.11" y="60.86" width="91.49" height="161.76" rx="11.13" ry="11.13"/>
    <rect class="cls-1" x="231.06" y="60.86" width="91.49" height="161.76" rx="11.13" ry="11.13"/>
    <circle cx="156.13" cy="94.3" r="7.31"/>
    <circle cx="203.21" cy="94.3" r="7.31"/>
    <circle cx="254.05" cy="94.3" r="7.31"/>
    <circle cx="301.13" cy="94.3" r="7.31"/>
    <path class="cls-5" d="M72.99,146.49c1.77-2.83,4.87-4.55,8.2-4.55s6.44,1.71,8.2,4.55l3.89,6.22,2.72-1.57c.85-.49,1.91-.42,2.68.17s1.12,1.6.87,2.55l-2.36,8.82c-.34,1.29-1.67,2.06-2.97,1.71l-8.82-2.36c-.95-.25-1.64-1.05-1.78-2.02s.34-1.93,1.19-2.41l2.86-1.65-3.78-6.04c-.59-.94-1.61-1.51-2.72-1.51s-2.14.58-2.72,1.51l-1.77,2.82c-.93,1.49-2.89,1.97-4.4,1.06-1.54-.93-2.04-2.95-1.08-4.48l1.77-2.82ZM98.7,167.36c1.51-.91,3.47-.43,4.4,1.06l2.46,3.94c.95,1.52,1.45,3.27,1.47,5.06.03,5.36-4.31,9.72-9.66,9.72h-9.71s0,3.22,0,3.22c0,.98-.59,1.87-1.49,2.24s-1.95.17-2.64-.52l-6.46-6.46c-.95-.95-.95-2.48,0-3.42l6.46-6.46c.7-.7,1.74-.9,2.64-.52s1.49,1.26,1.49,2.24v3.23h9.7c1.78,0,3.22-1.45,3.21-3.23,0-.6-.17-1.18-.48-1.68l-2.46-3.94c-.96-1.53-.47-3.55,1.08-4.48h0ZM61.92,164.23l-2.92-1.68c-.85-.49-1.32-1.44-1.19-2.41s.83-1.77,1.78-2.02l8.82-2.36c1.29-.34,2.62.42,2.97,1.71l2.36,8.81c.25.95-.09,1.95-.87,2.55s-1.84.67-2.68.17l-2.67-1.54-5.2,8.31c-.31.5-.48,1.09-.48,1.68-.01,1.78,1.43,3.23,3.21,3.23h3.25c1.79,0,3.23,1.44,3.23,3.23s-1.44,3.23-3.23,3.23h-3.25c-5.36,0-9.69-4.36-9.66-9.72.01-1.8.51-3.54,1.47-5.06,0,0,5.07-8.12,5.07-8.12Z"/>
    <path class="cls-7" d="M169.23,146.49c1.77-2.83,4.87-4.55,8.2-4.55s6.44,1.71,8.2,4.55l3.89,6.22,2.72-1.57c.85-.49,1.91-.42,2.68.17s1.12,1.6.87,2.55l-2.36,8.82c-.34,1.29-1.67,2.06-2.97,1.71l-8.82-2.36c-.95-.25-1.64-1.05-1.78-2.02s.34-1.93,1.19-2.41l2.86-1.65-3.78-6.04c-.59-.94-1.61-1.51-2.72-1.51s-2.14.58-2.72,1.51l-1.77,2.82c-.93,1.49-2.89,1.97-4.4,1.06-1.54-.93-2.04-2.95-1.08-4.48l1.77-2.82ZM194.93,167.36c1.51-.91,3.47-.43,4.4,1.06l2.46,3.94c.95,1.52,1.45,3.27,1.47,5.06.03,5.36-4.31,9.72-9.66,9.72h-9.71s0,3.22,0,3.22c0,.98-.59,1.87-1.49,2.24s-1.95.17-2.64-.52l-6.46-6.46c-.95-.95-.95-2.48,0-3.42l6.46-6.46c.7-.7,1.74-.9,2.64-.52s1.49,1.26,1.49,2.24v3.23h9.7c1.78,0,3.22-1.45,3.21-3.23,0-.6-.17-1.18-.48-1.68l-2.46-3.94c-.96-1.53-.47-3.55,1.08-4.48h0ZM158.15,164.23l-2.92-1.68c-.85-.49-1.32-1.44-1.19-2.41s.83-1.77,1.78-2.02l8.82-2.36c1.29-.34,2.62.42,2.97,1.71l2.36,8.81c.25.95-.09,1.95-.87,2.55s-1.84.67-2.68.17l-2.67-1.54-5.2,8.31c-.31.5-.48,1.09-.48,1.68-.01,1.78,1.43,3.23,3.21,3.23h3.25c1.79,0,3.23,1.44,3.23,3.23s-1.44,3.23-3.23,3.23h-3.25c-5.36,0-9.69-4.36-9.66-9.72.01-1.8.51-3.54,1.47-5.06,0,0,5.07-8.12,5.07-8.12Z"/>
    <path class="cls-8" d="M270.2,146.49c1.77-2.83,4.87-4.55,8.2-4.55s6.44,1.71,8.2,4.55l3.89,6.22,2.72-1.57c.85-.49,1.91-.42,2.68.17s1.12,1.6.87,2.55l-2.36,8.82c-.34,1.29-1.67,2.06-2.97,1.71l-8.82-2.36c-.95-.25-1.64-1.05-1.78-2.02s.34-1.93,1.19-2.41l2.86-1.65-3.78-6.04c-.59-.94-1.61-1.51-2.72-1.51s-2.14.58-2.72,1.51l-1.77,2.82c-.93,1.49-2.89,1.97-4.4,1.06-1.54-.93-2.04-2.95-1.08-4.48l1.77-2.82ZM295.91,167.36c1.51-.91,3.47-.43,4.4,1.06l2.46,3.94c.95,1.52,1.45,3.27,1.47,5.06.03,5.36-4.31,9.72-9.66,9.72h-9.71s0,3.22,0,3.22c0,.98-.59,1.87-1.49,2.24s-1.95.17-2.64-.52l-6.46-6.46c-.95-.95-.95-2.48,0-3.42l6.46-6.46c.7-.7,1.74-.9,2.64-.52s1.49,1.26,1.49,2.24v3.23h9.7c1.78,0,3.22-1.45,3.21-3.23,0-.6-.17-1.18-.48-1.68l-2.46-3.94c-.96-1.53-.47-3.55,1.08-4.48h0ZM259.13,164.23l-2.92-1.68c-.85-.49-1.32-1.44-1.19-2.41s.83-1.77,1.78-2.02l8.82-2.36c1.29-.34,2.62.42,2.97,1.71l2.36,8.81c.25.95-.09,1.95-.87,2.55s-1.84.67-2.68.17l-2.67-1.54-5.2,8.31c-.31.5-.48,1.09-.48,1.68-.01,1.78,1.43,3.23,3.21,3.23h3.25c1.79,0,3.23,1.44,3.23,3.23s-1.44,3.23-3.23,3.23h-3.25c-5.36,0-9.69-4.36-9.66-9.72.01-1.8.51-3.54,1.47-5.06,0,0,5.07-8.12,5.07-8.12Z"/>
    <path d="M65.76,96.84c-.85,0-1.54-.69-1.54-1.54,0-3.49-2.84-6.32-6.32-6.32s-6.32,2.84-6.32,6.32c0,.85-.69,1.54-1.54,1.54s-1.54-.69-1.54-1.54c0-5.18,4.22-9.4,9.4-9.4s9.4,4.22,9.4,9.4c0,.85-.69,1.54-1.54,1.54Z"/>
    <path d="M80.36,116.84c-5.18,0-9.4-4.22-9.4-9.4,0-.85.69-1.54,1.54-1.54s1.54.69,1.54,1.54c0,3.49,2.84,6.32,6.32,6.32s6.32-2.84,6.32-6.32c0-.85.69-1.54,1.54-1.54s1.54.69,1.54,1.54c0,5.18-4.22,9.4-9.4,9.4Z"/>
    <path d="M179.38,114.8c-5.18,0-9.4-4.22-9.4-9.4,0-.85.69-1.54,1.54-1.54s1.54.69,1.54,1.54c0,3.49,2.84,6.32,6.32,6.32s6.32-2.84,6.32-6.32c0-.85.69-1.54,1.54-1.54s1.54.69,1.54,1.54c0,5.18-4.22,9.4-9.4,9.4Z"/>
    <path d="M109.23,96.98c-.85,0-1.54-.69-1.54-1.54,0-3.49-2.84-6.32-6.32-6.32s-6.32,2.84-6.32,6.32c0,.85-.69,1.54-1.54,1.54s-1.54-.69-1.54-1.54c0-5.18,4.22-9.4,9.4-9.4s9.4,4.22,9.4,9.4c0,.85-.69,1.54-1.54,1.54Z"/>
    <circle class="cls-9" cx="277.06" cy="112.64" r="5.39"/>
  </g>
</svg>