<?xml version="1.0" encoding="UTF-8"?>
<svg id="Lager_1" xmlns="http://www.w3.org/2000/svg" viewBox="0 0 358 265">
  <defs>
    <style>
      .cls-1 {
        fill: #666e70;
      }

      .cls-2 {
        fill: #89806f;
      }

      .cls-3 {
        fill: #fef7ee;
      }

      .cls-4 {
        fill: #57a1b2;
      }

      .cls-5 {
        fill: #fff;
      }

      .cls-6 {
        opacity: .8;
      }

      .cls-7 {
        fill: #c2e07a;
      }

      .cls-8 {
        fill: #7ac6dd;
      }

      .cls-9 {
        stroke-width: 3px;
      }

      .cls-9, .cls-10 {
        fill: none;
        stroke: #000;
        stroke-linecap: round;
        stroke-miterlimit: 10;
      }

      .cls-10 {
        stroke-width: 3.46px;
      }
    </style>
  </defs>
  <rect class="cls-3" x="-2.37" y="1.4" width="360.81" height="200.61"/>
  <rect class="cls-7" x="-3.34" y="148.54" width="363.15" height="52.39"/>
  <rect class="cls-1" x="-.46" y="201.08" width="359.31" height="63.92"/>
  <g>
    <g>
      <path class="cls-4" d="M65.86,33.99h23.02c3.13,0,5.67,2.54,5.67,5.67v10.87h-34.35v-10.87c0-3.13,2.54-5.67,5.67-5.67Z"/>
      <path class="cls-8" d="M77.59,245.38c37.43,0,36.96-12.94,36.96-12.94,0,0,.46-80.62,0-88.93s-11.08-14.47-10.69-18.31,8.46-8.08,10-23.08c1.54-15-19.23-40.39-19.23-40.39v-8.08h-34.29v8.08s-20.77,25.39-19.23,40.39c1.54,15,9.62,19.23,10,23.08.38,3.85-10.23,10-10.69,18.31s0,88.93,0,88.93c0,0-.46,12.94,36.96,12.94"/>
    </g>
    <g class="cls-6">
      <path class="cls-5" d="M83.4,65.52c9.76,4.85,17.68,14.12,19.94,25.03,1.46,8.17.19,16.77-3.2,24.29-1.23,2.44-2.68,4.84-4.76,6.59,2.68-4.56,3.77-9.72,4.34-14.88.48-5.02.73-10.26-.3-15.19-2.15-10.2-8.58-18.61-16.03-25.83h0Z"/>
    </g>
    <g class="cls-6">
      <path class="cls-5" d="M94.85,140.39c1.2,12.81,1.42,26.2,1.5,39.08-.07,12.89-.29,26.26-1.5,39.08-1.21-12.81-1.43-26.2-1.5-39.08.08-12.89.3-26.26,1.5-39.08h0Z"/>
    </g>
    <circle cx="55.86" cy="98.94" r="7.31"/>
    <circle cx="97.3" cy="98.94" r="7.31"/>
    <line class="cls-9" x1="48.49" y1="89.73" x2="65.09" y2="95.76"/>
    <line class="cls-9" x1="104.48" y1="89.73" x2="87.88" y2="95.76"/>
    <path class="cls-10" d="M84.92,111.7c0,4.88-3.96,8.84-8.84,8.84s-8.84-3.96-8.84-8.84"/>
  </g>
  <rect class="cls-2" x="222.48" y="85.83" width="27.01" height="102.66" rx="4.98" ry="4.98"/>
  <g>
    <rect class="cls-7" x="213.02" y="52.74" width="52.39" height="52.39" rx="26.19" ry="26.19"/>
    <rect class="cls-7" x="184.52" y="76.16" width="52.39" height="52.39" rx="26.19" ry="26.19"/>
    <rect class="cls-7" x="241.97" y="75.27" width="52.39" height="52.39" rx="26.19" ry="26.19"/>
    <rect class="cls-7" x="207.98" y="76.77" width="52.39" height="52.39" rx="26.19" ry="26.19"/>
    <rect class="cls-7" x="249.31" y="35.09" width="63.07" height="63.07" rx="31.53" ry="31.53"/>
    <rect class="cls-7" x="205.24" y="6.57" width="63.07" height="63.07" rx="31.53" ry="31.53"/>
    <rect class="cls-7" x="162.46" y="35.73" width="63.07" height="63.07" rx="31.53" ry="31.53"/>
  </g>
  <circle cx="213.37" cy="60.23" r="7.31"/>
  <circle cx="256.06" cy="59.54" r="7.31"/>
  <line class="cls-10" x1="220.15" y1="79.49" x2="251.99" y2="79.49"/>
</svg>