<?xml version="1.0" encoding="UTF-8"?>
<svg id="Lager_1" xmlns="http://www.w3.org/2000/svg" viewBox="0 0 358 265">
  <defs>
    <style>
      .cls-1 {
        fill: #666e70;
      }

      .cls-2 {
        fill: #ab9fea;
      }

      .cls-3 {
        fill: #fef7ee;
      }

      .cls-4 {
        fill: none;
        stroke: #666e70;
        stroke-miterlimit: 10;
        stroke-width: 5px;
      }
    </style>
  </defs>
  <rect class="cls-2" x="-.69" y="-.86" width="357.95" height="267.9"/>
  <line class="cls-4" x1="117.56" y1="-.4" x2="117.56" y2="92.56"/>
  <line class="cls-4" x1="203.99" y1="-.4" x2="203.99" y2="148.51"/>
  <path class="cls-3" d="M126.45,108.03h0s-18.41,0-18.41,0h0c0,6.79-3.42,13.06-8.99,16.95-8.73,6.09-14.26,16.43-13.59,28.02.95,16.34,14.49,29.47,30.86,29.93,18.01.51,32.77-13.93,32.77-31.83,0-10.79-5.37-20.33-13.59-26.09-5.58-3.91-9.05-10.17-9.05-16.99Z"/>
  <rect class="cls-1" x="107.39" y="88.83" width="20.33" height="20.99" rx="1.84" ry="1.84"/>
  <path class="cls-3" d="M216.51,134.83h0s-25.04,0-25.04,0h0c0,9.24-4.65,17.77-12.22,23.05-11.87,8.28-19.4,22.35-18.48,38.11,1.29,22.23,19.71,40.08,41.97,40.71,24.49.7,44.57-18.95,44.57-43.29,0-14.68-7.31-27.65-18.48-35.48-7.59-5.32-12.3-13.83-12.3-23.1Z"/>
  <rect class="cls-1" x="190.16" y="107.87" width="27.65" height="28.55" rx="2.5" ry="2.5"/>
  <circle cx="184.24" cy="199.47" r="3.9"/>
  <circle cx="217.61" cy="199.47" r="3.9"/>
  <path d="M201.03,213.01c-3.42,0-6.21-2.79-6.21-6.21,0-.56.46-1.02,1.02-1.02s1.02.46,1.02,1.02c0,2.3,1.87,4.18,4.18,4.18s4.18-1.87,4.18-4.18c0-.56.46-1.02,1.02-1.02s1.02.46,1.02,1.02c0,3.42-2.79,6.21-6.21,6.21Z"/>
  <circle cx="111.08" cy="159.43" r="2.76"/>
  <circle cx="134.68" cy="159.43" r="2.76"/>
  <path d="M122.95,169.01c-2.42,0-4.39-1.97-4.39-4.39,0-.4.32-.72.72-.72s.72.32.72.72c0,1.63,1.32,2.95,2.95,2.95s2.95-1.32,2.95-2.95c0-.4.32-.72.72-.72s.72.32.72.72c0,2.42-1.97,4.39-4.39,4.39Z"/>
</svg>