<?xml version="1.0" encoding="UTF-8"?>
<svg id="Lager_1" xmlns="http://www.w3.org/2000/svg" viewBox="0 0 358 265">
  <defs>
    <style>
      .cls-1 {
        fill: #c9c1b9;
      }

      .cls-2 {
        fill: #95aa55;
      }

      .cls-3 {
        fill: #fef7ee;
      }

      .cls-4 {
        fill: #7e9067;
      }

      .cls-5 {
        fill: #ffbcb5;
      }

      .cls-6 {
        opacity: .4;
      }

      .cls-7 {
        fill: #fec970;
      }
    </style>
  </defs>
  <rect class="cls-2" x="-2.42" y="-5.6" width="363.6" height="275.06"/>
  <rect class="cls-4" x="-2.18" y="193.42" width="359.31" height="71.58"/>
  <rect class="cls-3" x="132.54" y="87.3" width="40.81" height="155.21" rx="10.99" ry="10.99"/>
  <path class="cls-7" d="M142.21,27.11l-75.31,51.45c-16.38,11.19-8.46,36.83,11.38,36.83h150.62c19.84,0,27.76-25.64,11.38-36.83l-75.31-51.45c-6.86-4.69-15.9-4.69-22.76,0Z"/>
  <rect class="cls-3" x="248.21" y="158.62" width="21.35" height="66.6" rx="7.36" ry="7.36"/>
  <path class="cls-5" d="M253.1,127.87l-34.92,27.75c-7.2,5.72-3.16,17.31,6.04,17.31h69.85c9.2,0,13.24-11.59,6.04-17.31l-34.92-27.75c-3.54-2.81-8.54-2.81-12.08,0Z"/>
  <circle cx="119.84" cy="76.4" r="7.31"/>
  <circle cx="188.18" cy="76.4" r="7.31"/>
  <path d="M152.5,96.9c-5.18,0-9.4-4.22-9.4-9.4,0-.85.69-1.54,1.54-1.54s1.54.69,1.54,1.54c0,3.49,2.84,6.32,6.32,6.32s6.32-2.84,6.32-6.32c0-.85.69-1.54,1.54-1.54s1.54.69,1.54,1.54c0,5.18-4.22,9.4-9.4,9.4Z"/>
  <circle cx="242.19" cy="150.76" r="3.9"/>
  <circle cx="275.56" cy="150.76" r="3.9"/>
  <path d="M258.98,164.3c-3.42,0-6.21-2.79-6.21-6.21,0-.56.46-1.02,1.02-1.02s1.02.46,1.02,1.02c0,2.3,1.87,4.18,4.18,4.18s4.18-1.87,4.18-4.18c0-.56.46-1.02,1.02-1.02s1.02.46,1.02,1.02c0,3.42-2.79,6.21-6.21,6.21Z"/>
  <g class="cls-6">
    <path class="cls-1" d="M141.26,131.83c1.2,14.55,1.42,29.76,1.5,44.39-.07,14.64-.29,29.82-1.5,44.39-1.21-14.55-1.43-29.76-1.5-44.39.08-14.64.3-29.82,1.5-44.39h0Z"/>
  </g>
  <g class="cls-6">
    <path class="cls-1" d="M153.68,131.83c1.2,14.55,1.42,29.76,1.5,44.39-.07,14.64-.29,29.82-1.5,44.39-1.21-14.55-1.43-29.76-1.5-44.39.08-14.64.3-29.82,1.5-44.39h0Z"/>
  </g>
  <g class="cls-6">
    <path class="cls-1" d="M164.64,131.83c1.2,14.55,1.42,29.76,1.5,44.39-.07,14.64-.29,29.82-1.5,44.39-1.21-14.55-1.43-29.76-1.5-44.39.08-14.64.3-29.82,1.5-44.39h0Z"/>
  </g>
  <g class="cls-6">
    <path class="cls-1" d="M253.21,178.19c1,13.94,1,27.88,0,41.82-1-13.94-1-27.88,0-41.82h0Z"/>
  </g>
  <g class="cls-6">
    <path class="cls-1" d="M259.42,178.19c1,13.94,1,27.88,0,41.82-1-13.94-1-27.88,0-41.82h0Z"/>
  </g>
  <g class="cls-6">
    <path class="cls-1" d="M264.9,178.19c1,13.94,1,27.88,0,41.82-1-13.94-1-27.88,0-41.82h0Z"/>
  </g>
</svg>