<?xml version="1.0" encoding="UTF-8"?>
<svg id="Lager_1" xmlns="http://www.w3.org/2000/svg" viewBox="0 0 358 265">
  <defs>
    <style>
      .cls-1 {
        fill: #94dced;
      }

      .cls-2 {
        fill: #fef7ee;
      }

      .cls-3 {
        fill: #d7f9ff;
      }

      .cls-4 {
        fill: #7ac6dd;
      }

      .cls-5 {
        fill: none;
        stroke: #000;
        stroke-linecap: round;
        stroke-miterlimit: 10;
        stroke-width: 3.46px;
      }
    </style>
  </defs>
  <rect class="cls-2" x=".41" y=".65" width="358.64" height="130.96"/>
  <rect class="cls-1" x=".52" y="128.23" width="356.86" height="138.94"/>
  <g>
    <path class="cls-3" d="M167.09,233.09c-33.75.7-67.72-.36-101.01-6.46-7.37-1.64-30.25-5.74-30.62-14.93,1.06-17.41,82.5-21.05,97.88-21.4,11.25-.25,22.51-.33,33.75,0-11.24.34-22.47.72-33.68,1.46-22.36,1.34-44.8,3.41-66.77,7.78-5.46,1.14-10.9,2.41-16.13,4.18-3.63,1.34-16.08,5.51-10.62,10.53,18.88,14.84,100.44,18.06,127.21,18.82h0Z"/>
    <path class="cls-3" d="M190.91,190.31c33.75-.7,67.72.36,101.01,6.46,7.37,1.64,30.25,5.74,30.62,14.93-1.06,17.41-82.5,21.05-97.88,21.4-11.25.25-22.51.33-33.75,0,11.24-.34,22.47-.72,33.68-1.46,22.36-1.34,44.81-3.41,66.77-7.78,5.46-1.14,10.9-2.41,16.13-4.18,3.63-1.34,16.08-5.51,10.62-10.53-18.88-14.84-100.44-18.06-127.21-18.82h0Z"/>
    <path class="cls-3" d="M190.91,196.87c23.39-.76,46.99-.15,70.1,4.05,5.83,1.2,11.75,2.47,17.13,5.27,3.67,1.84,6.4,5.65,2.69,9.1-8.57,7.09-31.8,9.11-43.12,10.25-15.58,1.34-31.22,1.54-46.8.97,15.56-.61,31.11-1.56,46.57-3.3,7.66-.98,39.63-4.54,42.13-11.52-1.25-4.36-14.84-6.98-19.15-8-22.86-4.52-46.28-5.81-69.54-6.83h0Z"/>
    <path class="cls-3" d="M167.09,226.52c-23.39.76-46.99.15-70.1-4.05-5.83-1.2-11.75-2.47-17.13-5.27-3.67-1.84-6.4-5.65-2.69-9.1,8.57-7.09,31.8-9.11,43.12-10.25,15.58-1.34,31.22-1.54,46.8-.97-15.56.61-31.11,1.56-46.57,3.3-7.66.98-39.63,4.54-42.13,11.52,1.25,4.36,14.84,6.98,19.15,8,22.86,4.51,46.28,5.81,69.54,6.83h0Z"/>
    <path class="cls-3" d="M167.09,220.79c-9.55.61-19.16.57-28.74-.15-7.22-.6-14.49-1.38-21.47-3.58-1.81-.63-3.84-1.38-5.32-2.75-1.9-1.71-1.53-4.14.44-5.62,10.93-7.04,41.72-6.92,55.08-6.08-9.55.64-19.07,1.32-28.5,2.48-4.71.62-9.42,1.25-14.02,2.25-3.57.84-7.33,1.54-10.42,3.48-.29.16-.86.74-.86.88-.02-.03.06.2.35.47l.22.21c3.12,2.12,7.03,2.8,10.7,3.68,13.98,2.84,28.26,3.72,42.52,4.72h0Z"/>
    <path class="cls-3" d="M190.91,202.61c9.55-.61,19.16-.57,28.74.15,7.22.6,14.49,1.38,21.47,3.58,1.81.63,3.85,1.38,5.32,2.75,1.9,1.71,1.53,4.14-.44,5.62-10.93,7.04-41.72,6.92-55.08,6.08,9.55-.64,19.07-1.32,28.5-2.48,4.71-.62,9.42-1.25,14.02-2.25,3.57-.84,7.33-1.54,10.42-3.48.13-.09.4-.29.51-.41.29-.27.37-.5.35-.47.02.03-.06-.2-.35-.47l-.22-.21c-3.12-2.12-7.03-2.8-10.7-3.68-13.98-2.84-28.26-3.72-42.52-4.72h0Z"/>
  </g>
  <path class="cls-4" d="M183.12,42.28s-59.3,73.65-59.3,113.95c0,33.17,26.89,60.07,60.07,60.07s60.07-26.89,60.07-60.07c0-40.94-60.84-113.95-60.84-113.95Z"/>
  <path class="cls-3" d="M190.48,73.17c21.79,24.26,51.02,71.65,32.56,104-2.79,4.75-6.61,8.83-11.01,12.09,3.92-3.71,7.35-7.96,9.72-12.79,15.73-31.74-12.97-77.41-31.26-103.3h0Z"/>
  <g>
    <circle cx="155.86" cy="127.09" r="7.31"/>
    <circle cx="208.59" cy="126.4" r="7.31"/>
    <path class="cls-5" d="M192.73,139.21c0,4.88-3.96,8.84-8.84,8.84s-8.84-3.96-8.84-8.84"/>
  </g>
</svg>