<svg width="393" height="852" viewBox="0 0 393 852" fill="none" xmlns="http://www.w3.org/2000/svg">
<g clip-path="url(#clip0_358_1816)">
<rect x="156" y="422" width="18.964" height="5.93" transform="rotate(-178 156 422)" fill="#C4DF83" fill-opacity="0.75"/>
<rect x="51" y="602" width="32.964" height="5.93" transform="rotate(-132 51 602)" fill="#F7C5B8" fill-opacity="0.75"/>
<rect x="390" y="95" width="21.964" height="6.93" transform="rotate(119 390 95)" fill="#AB9FEA"/>
<rect x="322" y="216" width="16.964" height="3.93" transform="rotate(133 322 216)" fill="#AB9FEA" fill-opacity="0.45"/>
<rect x="43" y="522" width="21.964" height="6.93" transform="rotate(115 43 522)" fill="#AB9FEA" fill-opacity="0.45"/>
<rect x="257" y="782" width="27.964" height="5.93" transform="rotate(-72 257 782)" fill="#C4DF83" fill-opacity="0.85"/>
<rect x="270" y="796" width="8.964" height="4.93" transform="rotate(105 270 796)" fill="#AB9FEA"/>
<rect x="44" y="568" width="12.964" height="7.93" transform="rotate(-128 44 568)" fill="#AB9FEA" fill-opacity="0.6"/>
<rect x="159" y="543" width="28.964" height="4.93" transform="rotate(178 159 543)" fill="#FEC96F" fill-opacity="0.65"/>
<rect x="64" y="639" width="5.964" height="5.93" transform="rotate(-65 64 639)" fill="#FEC96F" fill-opacity="0.65"/>
<rect x="332" y="172" width="26.964" height="6.93" transform="rotate(112 332 172)" fill="#AB9FEA" fill-opacity="0.9"/>
<rect x="58" y="6" width="21.964" height="6.93" transform="rotate(23 58 6)" fill="#C4DF83" fill-opacity="0.9"/>
<rect x="13" y="26" width="29.964" height="5.93" transform="rotate(55 13 26)" fill="#9CD9E7" fill-opacity="0.75"/>
<circle cx="160.63" cy="454.63" r="2.63" fill="#AB9FEA"/>
<circle cx="159.63" cy="361.63" r="3.63" fill="#F7C5B8" fill-opacity="0.45"/>
<circle cx="190.63" cy="45.63" r="5.63" fill="#AB9FEA" fill-opacity="0.6"/>
<circle cx="326.63" cy="185.63" r="5.63" fill="#AB9FEA" fill-opacity="0.35"/>
<circle cx="5.63" cy="595.63" r="3.63" fill="#9CD9E7"/>
<circle cx="243.13" cy="804.13" r="4.13" fill="#9CD9E7" fill-opacity="0.85"/>
<circle cx="255.13" cy="176.13" r="2.13" fill="#AB9FEA" fill-opacity="0.75"/>
<circle cx="277.13" cy="122.13" r="6.13" fill="#9CD9E7" fill-opacity="0.65"/>
<circle cx="387.13" cy="812.13" r="2.13" fill="#C4DF83" fill-opacity="0.6"/>
<circle cx="80.13" cy="9.13" r="4.13" fill="#AB9FEA" fill-opacity="0.9"/>
<circle cx="118.13" cy="825.13" r="6.13" fill="#FEC96F" fill-opacity="0.9"/>
<circle cx="382.13" cy="142.13" r="3.13" fill="#FEC96F" fill-opacity="0.6"/>
<circle cx="85.63" cy="700.63" r="6.63" fill="#AB9FEA" fill-opacity="0.85"/>
<path d="M144.348 416.189L138.225 417.49L134.036 412.838L135.97 406.885L142.094 405.583L146.282 410.235L144.348 416.189Z" fill="#AB9FEA"/>
<path d="M367.744 739.253L360.235 732.251L367.238 724.742L374.747 731.744L367.744 739.253Z" fill="#F7C5B8" fill-opacity="0.45"/>
<path d="M2.32992 510.197L-6.39391 512.865L-11.6263 505.392L-6.1363 498.106L2.48912 501.076L2.32992 510.197Z" fill="#9CD9E7" fill-opacity="0.65"/>
<path d="M295.931 74.0232L290.262 77.705L284.238 74.636L283.885 67.8853L289.554 64.2035L295.577 67.2725L295.931 74.0232Z" fill="#FEC96F" fill-opacity="0.85"/>
<path d="M267.021 726.001L258.041 721.023L263.019 712.044L271.999 717.021L267.021 726.001Z" fill="#9CD9E7" fill-opacity="0.85"/>
<path d="M93.5615 169.333L103.79 170.228L102.895 180.456L92.6666 179.561L93.5615 169.333Z" fill="#F7C5B8" fill-opacity="0.35"/>
<path d="M83.1619 427.327L78.7757 438.183L71.5672 428.956L83.1619 427.327Z" fill="#AB9FEA" fill-opacity="0.65"/>
<path d="M10.0726 -3.49872L7.64388 -14.9249L19.07 -17.3536L21.4987 -5.92742L10.0726 -3.49872Z" fill="#F7C5B8" fill-opacity="0.85"/>
<path d="M247.236 857.756L237.306 863.961L236.898 852.259L247.236 857.756Z" fill="#F7C5B8" fill-opacity="0.45"/>
<path d="M328.977 791.473L333.814 792.77L334.076 797.771L329.401 799.565L326.25 795.673L328.977 791.473Z" fill="#F7C5B8" fill-opacity="0.9"/>
<path d="M150.817 177.525L138.273 178.402L143.786 167.1L150.817 177.525Z" fill="#9CD9E7" fill-opacity="0.6"/>
<path d="M173.046 92.0656L168.721 86.1119L173.046 80.1583L180.045 82.4324L180.045 89.7915L173.046 92.0656Z" fill="#F7C5B8"/>
<path d="M113.095 532.174L116.016 537.443L110.747 540.364L107.826 535.095L113.095 532.174Z" fill="#9CD9E7"/>
<path d="M361.651 91.5031L357.19 89.5452L352.8 91.6576L354.758 87.1962L352.645 82.8059L357.107 84.7638L361.497 82.6514L359.539 87.1128L361.651 91.5031Z" fill="#FEC96F"/>
<path d="M217.531 676.704L218.356 671.494L213.657 669.1L218.866 668.274L219.692 663.065L222.086 667.764L227.296 666.939L223.566 670.669L225.961 675.369L221.261 672.974L217.531 676.704Z" fill="#AB9FEA" fill-opacity="0.35"/>
<path d="M172.822 200.483L172.852 206.133L177.161 209.788L171.511 209.818L167.856 214.127L167.826 208.477L163.517 204.822L169.167 204.792L172.822 200.483Z" fill="#C4DF83" fill-opacity="0.45"/>
<path d="M360.847 795.587L359.232 799.051L362.027 801.657L358.234 801.191L356.619 804.655L355.889 800.904L352.096 800.438L355.439 798.585L354.71 794.834L357.504 797.44L360.847 795.587Z" fill="#AB9FEA" fill-opacity="0.85"/>
<path d="M204.26 569.805L206.926 568.508L205.717 565.802L208.173 567.463L209.913 565.062L209.702 568.019L212.651 568.325L209.985 569.622L211.194 572.328L208.738 570.667L206.999 573.068L207.209 570.111L204.26 569.805Z" fill="#C4DF83" fill-opacity="0.35"/>
<path d="M306.936 191.577L307.687 185.527L301.664 184.581L307.279 182.206L305.087 176.518L309.951 180.192L313.782 175.45L313.031 181.5L319.054 182.446L313.439 184.821L315.631 190.51L310.767 186.835L306.936 191.577Z" fill="#F7C5B8" fill-opacity="0.75"/>
<path d="M187.886 425.167L185.205 426.714L185.849 429.742L183.549 427.671L180.868 429.218L182.127 426.391L179.827 424.32L182.905 424.643L184.164 421.816L184.808 424.843L187.886 425.167Z" fill="#AB9FEA" fill-opacity="0.85"/>
<path d="M154.549 748.03L156.547 744.963L153.545 742.867L157.201 743.063L157.515 739.416L159.173 742.68L162.489 741.128L160.491 744.196L163.492 746.292L159.837 746.096L159.523 749.743L157.865 746.479L154.549 748.03Z" fill="#FEC96F" fill-opacity="0.35"/>
<path d="M59.7831 523.587L63.0772 523.937L63.5341 520.656L64.8776 523.684L67.9475 522.439L65.997 525.117L68.6099 527.153L65.3159 526.802L64.859 530.083L63.5154 527.055L60.4456 528.3L62.3961 525.623L59.7831 523.587Z" fill="#C4DF83" fill-opacity="0.85"/>
<path d="M297.15 396.82L302.843 396.028L302.235 390.311L305.768 394.846L310.415 391.461L308.254 396.788L313.509 399.12L307.815 399.912L308.423 405.628L304.89 401.094L300.244 404.479L302.404 399.152L297.15 396.82Z" fill="#AB9FEA" fill-opacity="0.35"/>
<path d="M74.9896 131.811L79.9643 129.131L81.1686 123.611L83.8478 128.586L89.3683 129.79L84.3936 132.469L83.1893 137.99L80.5101 133.015L74.9896 131.811Z" fill="#F7C5B8"/>
<path d="M331.746 679.561L326.913 682.465L328.181 687.958L323.926 684.26L319.093 687.163L321.296 681.973L317.041 678.275L322.658 678.766L324.861 673.576L326.129 679.07L331.746 679.561Z" fill="#C4DF83" fill-opacity="0.75"/>
<path d="M87.5873 115.153L90.8468 116.819L92.6175 113.615L92.8045 117.271L96.4644 117.203L93.3919 119.192L95.2812 122.328L92.0216 120.662L90.251 123.866L90.064 120.21L86.4041 120.278L89.4766 118.288L87.5873 115.153Z" fill="#9CD9E7" fill-opacity="0.65"/>
</g>
<defs>
<clipPath id="clip0_358_1816">
<rect width="393" height="852" fill="white"/>
</clipPath>
</defs>
</svg>
