<svg width="35" height="35" viewBox="0 0 35 35" fill="none" xmlns="http://www.w3.org/2000/svg">
<circle cx="17.5" cy="17.5" r="16.5" fill="#C2E07A" stroke="#7E9067" stroke-width="2"/>
<path fill-rule="evenodd" clip-rule="evenodd" d="M17.227 6H17.2256C14.8435 6 12.9098 7.93958 12.8871 10.341C12.4066 10.1557 11.8851 10.0542 11.3401 10.0542H11.3388C8.94253 10.0542 7 12.0169 7 14.438V14.4394C7 16.4247 8.30614 18.1017 10.0975 18.6411C10.0569 18.86 10.0356 19.0859 10.0356 19.3167V19.3181C10.0356 21.3292 11.6492 22.9594 13.6396 22.9594H13.6409C14.1879 22.9594 14.7064 22.8363 15.1707 22.616C15.2976 22.6846 15.4291 22.7457 15.5645 22.7988V28.3209C15.5645 28.6959 15.8121 29 16.1176 29H18.0113C18.3168 29 18.5645 28.6959 18.5645 28.3209V22.617C18.8427 22.4669 19.0992 22.2809 19.3279 22.0652C19.9393 22.548 20.709 22.8358 21.5451 22.8358H21.5465C23.5369 22.8358 25.1504 21.2054 25.1504 19.1944V19.1931C25.1504 18.9053 25.1174 18.6254 25.055 18.3569C26.5723 17.674 27.6301 16.137 27.6301 14.3504V14.3491C27.6301 11.928 25.6876 9.96527 23.2914 9.96527H23.29C22.6772 9.96527 22.094 10.0937 21.5654 10.3253C21.5344 7.93109 19.6039 6 17.227 6Z" fill="#7E9067"/>
</svg>
