<svg width="26" height="26" viewBox="0 0 26 26" fill="none" xmlns="http://www.w3.org/2000/svg">
<path fill-rule="evenodd" clip-rule="evenodd" d="M7 5L7 4C7 3.44771 7.44772 3 8 3C8.55229 3 9 3.44772 9 4V5H12V4C12 3.44771 12.4477 3 13 3C13.5523 3 14 3.44772 14 4V5H17V4C17 3.44771 17.4477 3 18 3C18.5523 3 19 3.44772 19 4V5H20C21.1046 5 22 5.89543 22 7V7.5V9H4V7.5V7C4 5.89543 4.89543 5 6 5H7ZM4 19V11H22V19C22 20.1046 21.1046 21 20 21H6C4.89543 21 4 20.1046 4 19ZM9 13C8.44772 13 8 13.4477 8 14C8 14.5523 8.44772 15 9 15H17C17.5523 15 18 14.5523 18 14C18 13.4477 17.5523 13 17 13H9Z" fill="#FEC970"/>
</svg>
