<svg width="26" height="26" viewBox="0 0 26 26" fill="none" xmlns="http://www.w3.org/2000/svg">
<path d="M21.6666 7.58366H20.9083C21.1559 7.07758 21.2859 6.52206 21.2885 5.95866C21.2885 4.95305 20.8891 3.98862 20.178 3.27755C19.4669 2.56647 18.5025 2.16699 17.4969 2.16699C15.6368 2.16699 14.014 3.46699 12.805 4.85474C11.2666 3.07916 9.69471 2.16699 8.12496 2.16699C7.11935 2.16699 6.15492 2.56647 5.44385 3.27755C4.73277 3.98862 4.33329 4.95305 4.33329 5.95866C4.33646 6.522 4.46643 7.0774 4.71354 7.58366H4.33329C3.75866 7.58366 3.20756 7.81193 2.80123 8.21826C2.3949 8.62459 2.16663 9.17569 2.16663 9.75033V11.917C2.16663 12.2043 2.28076 12.4799 2.48393 12.683C2.68709 12.8862 2.96264 13.0003 3.24996 13.0003H22.75C23.0373 13.0003 23.3128 12.8862 23.516 12.683C23.7192 12.4799 23.8333 12.2043 23.8333 11.917V9.75033C23.8333 9.17569 23.605 8.62459 23.1987 8.21826C22.7924 7.81193 22.2413 7.58366 21.6666 7.58366ZM10.8961 7.58366H8.12496C7.69398 7.58366 7.28066 7.41245 6.97591 7.10771C6.67116 6.80296 6.49996 6.38964 6.49996 5.95866C6.49996 5.52768 6.67116 5.11436 6.97591 4.80961C7.28066 4.50486 7.69398 4.33366 8.12496 4.33366C9.09996 4.33366 10.2916 5.15049 11.4746 6.63249C11.2374 6.99758 11.05 7.32041 10.8961 7.58366ZM17.5045 7.58366H13.4506C14.4614 6.10166 16.0192 4.33366 17.5012 4.33366C17.9322 4.33366 18.3455 4.50486 18.6503 4.80961C18.955 5.11436 19.1262 5.52768 19.1262 5.95866C19.1262 6.38964 18.955 6.80296 18.6503 7.10771C18.3455 7.41245 17.9322 7.58366 17.5012 7.58366H17.5045Z" fill="#AB9FEA"/>
<path d="M14.0833 15.167H11.9166V23.8337H14.0833V15.167Z" fill="#AB9FEA"/>
<path d="M9.74996 15.167H4.33329V21.667C4.33329 22.2416 4.56157 22.7927 4.96789 23.1991C5.37422 23.6054 5.92532 23.8337 6.49996 23.8337H9.74996V15.167Z" fill="#AB9FEA"/>
<path d="M16.25 15.167V23.8337H19.5C20.0746 23.8337 20.6257 23.6054 21.032 23.1991C21.4384 22.7927 21.6666 22.2416 21.6666 21.667V15.167H16.25Z" fill="#AB9FEA"/>
</svg>
