<svg width="382" height="382" viewBox="0 0 382 382" fill="none" xmlns="http://www.w3.org/2000/svg">
<g clip-path="url(#clip0_29_992)">
<rect width="382" height="382" fill="white"/>
<ellipse cx="190.201" cy="191" rx="190.201" ry="191" fill="#C2E07A"/>
<path fill-rule="evenodd" clip-rule="evenodd" d="M191.799 382C206.284 382 220.391 380.374 233.949 377.294C224.661 370.431 224.73 357.622 224.805 343.675C224.886 328.646 224.974 312.296 213.369 300.642C193.862 281.053 228.774 275.126 266.598 268.704H266.598C283.008 265.918 299.965 263.039 313.265 258.911C337.322 251.444 352.028 265.089 359.941 280.363C374.023 253.699 382 223.285 382 191C382 187.725 381.918 184.468 381.756 181.233C381.193 196.976 380.398 210.681 379.602 220.693C366.816 211.331 343.64 170.134 343.64 128.403C343.64 106.171 322.773 98.5164 303.272 91.3631C286.169 85.0891 270.117 79.2009 270.117 64.2017C270.117 53.2123 281.337 41.831 296.574 31.5672C266.529 11.6162 230.515 0 191.799 0C125.938 0 67.8959 33.6155 33.7579 84.6929C39.5441 87.9261 45.1481 93.4549 49.0037 98.7786C55.6578 107.967 55.3863 108.896 53.5954 115.025C51.9448 120.674 49.0037 130.74 49.0037 155.758C49.0037 180.4 59.7041 185.879 70.3213 191.316C82.1792 197.388 93.9333 203.407 90.5602 236.01C90.0065 241.362 89.4827 246.28 89.0014 250.8C83.9254 298.469 83.5689 301.817 102.548 301.817C111.769 301.817 116.344 292.124 120.992 282.277C126.816 269.936 132.756 257.352 148.1 263.295C179.25 275.361 171.497 293.15 163.06 312.505C156.346 327.909 149.199 344.305 160.887 359.598C165.452 365.572 173.015 370.148 179.504 374.074C184.287 376.968 188.486 379.509 190.47 381.995C190.913 381.998 191.356 382 191.799 382Z" fill="#9FBDEA"/>
<path d="M143.849 233.74H238.15" stroke="black" stroke-width="14" stroke-linecap="round"/>
<path d="M237.583 142.616L273.812 178.997" stroke="black" stroke-width="11.2269" stroke-linecap="round"/>
<path d="M273.812 142.011L237.583 178.392" stroke="black" stroke-width="11.2269" stroke-linecap="round"/>
<path d="M111.049 142.616L147.277 178.997" stroke="black" stroke-width="11.2269" stroke-linecap="round"/>
<path d="M147.277 142.011L111.049 178.392" stroke="black" stroke-width="11.2269" stroke-linecap="round"/>
</g>
<defs>
<clipPath id="clip0_29_992">
<rect width="382" height="382" fill="white"/>
</clipPath>
</defs>
</svg>
