<svg width="380" height="382" viewBox="0 0 380 382" fill="none" xmlns="http://www.w3.org/2000/svg">
<path d="M380 191C380 296.486 294.858 382 189.951 382C85.0439 382 0 296.486 0 191C0 85.5136 85.0439 0 189.951 0C294.858 0 380 85.5136 380 191Z" fill="#C2E07A"/>
<path fill-rule="evenodd" clip-rule="evenodd" d="M189.792 382C204.258 382 218.346 380.374 231.886 377.294C222.61 370.431 222.679 357.622 222.754 343.675C222.835 328.646 222.923 312.296 211.333 300.642C191.851 281.053 226.718 275.126 264.492 268.704H264.492C280.88 265.918 297.816 263.039 311.097 258.911C335.124 251.444 349.81 265.089 357.712 280.363C371.776 253.699 379.742 223.285 379.742 191C379.742 187.725 379.66 184.469 379.498 181.234C378.937 196.976 378.142 210.681 377.348 220.693C364.578 211.331 341.433 170.134 341.433 128.403C341.433 106.171 320.593 98.5164 301.118 91.3631C284.037 85.0891 268.007 79.2009 268.007 64.2017C268.007 53.2123 279.211 41.8311 294.429 31.5672C264.423 11.6162 228.457 0 189.792 0C124.017 0 66.0511 33.6155 31.958 84.6928C37.7366 87.926 43.3332 93.4549 47.1837 98.7786C53.8291 107.966 53.558 108.896 51.7694 115.025C50.121 120.674 47.1837 130.74 47.1837 155.757C47.1837 180.4 57.8701 185.879 68.4733 191.316C80.3157 197.388 92.0543 203.407 88.6856 236.01C88.1326 241.361 87.6095 246.28 87.1289 250.8C82.0595 298.469 81.7035 301.816 100.657 301.816C109.867 301.816 114.436 292.124 119.077 282.277C124.894 269.936 130.826 257.352 146.15 263.295C177.259 275.361 169.516 293.15 161.09 312.505C154.385 327.909 147.248 344.305 158.92 359.598C163.479 365.572 171.032 370.148 177.512 374.074C182.289 376.968 186.483 379.509 188.464 381.995C188.906 381.998 189.349 382 189.792 382Z" fill="#9FBDEA"/>
<ellipse cx="122.909" cy="170.135" rx="20.7509" ry="20.8655" fill="black"/>
<ellipse cx="266.57" cy="170.135" rx="20.7509" ry="20.8655" fill="black"/>
<path d="M226.664 218.286C226.664 238.674 210.227 255.202 189.951 255.202C169.675 255.202 153.238 238.674 153.238 218.286" stroke="black" stroke-width="14" stroke-linecap="round"/>
</svg>
